<svg id="Layer_1" data-name="Layer 1" xmlns="http://www.w3.org/2000/svg" xmlns:xlink="http://www.w3.org/1999/xlink" viewBox="0 0 441 635.68"><defs><style>.cls-1{fill:url(#linear-gradient);}.cls-2{fill:#434345;}.cls-3{fill:#fff;}.cls-4{fill:none;stroke:#fff;stroke-linecap:round;stroke-miterlimit:10;stroke-width:3px;}</style><linearGradient id="linear-gradient" x1="27.94" y1="68.3" x2="422.05" y2="379.81" gradientUnits="userSpaceOnUse"><stop offset="0" stop-color="#b33939"/><stop offset="0.5" stop-color="#6569b0"/><stop offset="1" stop-color="#00b1f0"/></linearGradient></defs><g id="Layer_2" data-name="Layer 2"><rect class="cls-1" width="441" height="441" rx="61.53"/><path class="cls-2" d="M214.68,74.15a9.62,9.62,0,0,1-1.07,3.45,5.47,5.47,0,0,1-1.76,1.91,3.91,3.91,0,0,1-2.07.61H137.13v67.44h68.66a4.29,4.29,0,0,1,2.07.54,4.93,4.93,0,0,1,1.76,1.76,8.76,8.76,0,0,1,1.08,3.3,38.07,38.07,0,0,1,.3,5.29,35.36,35.36,0,0,1-.3,5,9.48,9.48,0,0,1-1.08,3.37,6.18,6.18,0,0,1-1.76,2,3.59,3.59,0,0,1-2.07.69H137.13V252.1a3.7,3.7,0,0,1-2.76,3.6,23.85,23.85,0,0,1-4,.92,44.16,44.16,0,0,1-6.44.38,44.87,44.87,0,0,1-6.28-.38,23.33,23.33,0,0,1-4.14-.92,3.9,3.9,0,0,1-2.14-1.53,3.84,3.84,0,0,1-.62-2.07V68.48c0-4,1-6.77,3.14-8.36a10.91,10.91,0,0,1,6.67-2.37h89.21a3.91,3.91,0,0,1,2.07.61,5.28,5.28,0,0,1,1.76,2,10.52,10.52,0,0,1,1.07,3.6,37.23,37.23,0,0,1,.31,5.14A35.43,35.43,0,0,1,214.68,74.15Z"/><path class="cls-2" d="M346.38,255.32a11.35,11.35,0,0,1-4.44,1.3,64.43,64.43,0,0,1-7.74.38q-4.6,0-7.28-.23a18.78,18.78,0,0,1-4.29-.77,6,6,0,0,1-2.46-1.38,8.37,8.37,0,0,1-1.45-1.91L285.61,198l-33,54.72a8.7,8.7,0,0,1-1.46,1.91,6,6,0,0,1-2.45,1.38,18.61,18.61,0,0,1-4.22.77q-2.61.23-6.9.23a57.09,57.09,0,0,1-7.27-.38,9.62,9.62,0,0,1-4.14-1.3,2.63,2.63,0,0,1-1.23-2.38,7.9,7.9,0,0,1,1.46-3.6l42.91-67.29-40.61-64.83a8.58,8.58,0,0,1-1.31-3.61,2.73,2.73,0,0,1,1.38-2.45,9.76,9.76,0,0,1,4.45-1.3c2-.2,4.62-.31,7.89-.31q4.44,0,7.13.23a22.91,22.91,0,0,1,4.21.69,5.46,5.46,0,0,1,2.3,1.23,8.59,8.59,0,0,1,1.38,1.84l31.42,51.34,31.88-51.34a10.82,10.82,0,0,1,1.38-1.69,6.28,6.28,0,0,1,2.07-1.3,13.55,13.55,0,0,1,3.68-.77c1.58-.15,3.76-.23,6.52-.23a71.11,71.11,0,0,1,7.27.31,10.43,10.43,0,0,1,4.22,1.15,2.34,2.34,0,0,1,1.23,2.37,10.06,10.06,0,0,1-1.54,3.84L304,181.28l42.61,68.06a7.67,7.67,0,0,1,1.23,3.6A2.76,2.76,0,0,1,346.38,255.32Z"/><path class="cls-3" d="M207.68,68.15a9.62,9.62,0,0,1-1.07,3.45,5.47,5.47,0,0,1-1.76,1.91,3.91,3.91,0,0,1-2.07.61H130.13v67.44h68.66a4.29,4.29,0,0,1,2.07.54,4.93,4.93,0,0,1,1.76,1.76,8.76,8.76,0,0,1,1.08,3.3,38.07,38.07,0,0,1,.3,5.29,35.36,35.36,0,0,1-.3,5,9.48,9.48,0,0,1-1.08,3.37,6.18,6.18,0,0,1-1.76,2,3.59,3.59,0,0,1-2.07.69H130.13V246.1a3.7,3.7,0,0,1-2.76,3.6,23.85,23.85,0,0,1-4,.92,44.16,44.16,0,0,1-6.44.38,44.87,44.87,0,0,1-6.28-.38,23.33,23.33,0,0,1-4.14-.92,3.9,3.9,0,0,1-2.14-1.53,3.84,3.84,0,0,1-.62-2.07V62.48c0-4,1-6.77,3.14-8.36a10.91,10.91,0,0,1,6.67-2.37h89.21a3.91,3.91,0,0,1,2.07.61,5.28,5.28,0,0,1,1.76,2,10.52,10.52,0,0,1,1.07,3.6,37.23,37.23,0,0,1,.31,5.14A35.43,35.43,0,0,1,207.68,68.15Z"/><path class="cls-3" d="M339.38,249.32a11.35,11.35,0,0,1-4.44,1.3,64.43,64.43,0,0,1-7.74.38q-4.6,0-7.28-.23a18.78,18.78,0,0,1-4.29-.77,6,6,0,0,1-2.46-1.38,8.37,8.37,0,0,1-1.45-1.91L278.61,192l-33,54.72a8.7,8.7,0,0,1-1.46,1.91,6,6,0,0,1-2.45,1.38,18.61,18.61,0,0,1-4.22.77q-2.61.22-6.9.23a57.09,57.09,0,0,1-7.27-.38,9.62,9.62,0,0,1-4.14-1.3,2.63,2.63,0,0,1-1.23-2.38,7.9,7.9,0,0,1,1.46-3.6l42.91-67.29-40.61-64.83a8.58,8.58,0,0,1-1.31-3.61,2.73,2.73,0,0,1,1.38-2.45,9.76,9.76,0,0,1,4.45-1.3c2-.2,4.62-.31,7.89-.31q4.44,0,7.13.23a22.91,22.91,0,0,1,4.21.69,5.46,5.46,0,0,1,2.3,1.23,8.59,8.59,0,0,1,1.38,1.84l31.42,51.34,31.88-51.34a10.82,10.82,0,0,1,1.38-1.69,6.28,6.28,0,0,1,2.07-1.3,13.55,13.55,0,0,1,3.68-.77c1.58-.15,3.76-.23,6.52-.23a71.11,71.11,0,0,1,7.27.31,10.43,10.43,0,0,1,4.22,1.15,2.34,2.34,0,0,1,1.23,2.37,10.06,10.06,0,0,1-1.54,3.84L297,175.28l42.61,68.06a7.67,7.67,0,0,1,1.23,3.6A2.76,2.76,0,0,1,339.38,249.32Z"/><line class="cls-4" x1="20" y1="294" x2="419" y2="294"/></g><path class="cls-3" d="M40.53,396.21,26.46,346.66c-1.25-4.07-2.12-6.4-2.6-7s-1.84-.95-4.08-1.11l-.78,0v-3.81H42.79v3.81H42q-4.92,0-4.92,1.47a29.31,29.31,0,0,0,1.35,6.65l8,28.1L59,335.47h4.64L77,377.18l9.61-30.35c.22-.71.55-1.87,1-3.49a17.23,17.23,0,0,0,.65-3.08q0-1.72-4.47-1.72h-.74v-3.81H99.23v3.81l-.74,0c-.9.08-1.52.12-1.85.12-1.42,0-2.29.24-2.62.72a57.42,57.42,0,0,0-2.63,7.41L75.61,396.21h-4L58,354.09,44.66,396.21Z"/><path class="cls-3" d="M141.29,395.43H95v-3.81l.77,0c2.77-.19,4.42-.66,5-1.41s.82-2.95.82-6.59v-37q0-5.46-.8-6.57t-5-1.43l-.77,0v-3.81h44.54V345.6h-6.07l-.08-.78c-.09-1.4-.13-2.22-.13-2.46,0-1.53-.36-2.52-1.08-3s-2.36-.65-4.91-.65h-13V361.8h8.45a30.91,30.91,0,0,0,5.6-.25c.48-.16.74-1.42.8-3.78l.08-.77h4.31v13.12h-4.31l-.08-.73c-.06-2.16-.44-3.38-1.16-3.65a19.22,19.22,0,0,0-5.24-.41H114v18.21q0,6.81,1.6,7.26a37.44,37.44,0,0,0,6.54.32h5.1c4.08,0,6.38-.19,6.88-.59s.86-2.3,1.08-5.72l0-.78h6.07Z"/><path class="cls-3" d="M154.34,377l-3.08,6.51c-1.49,3.24-2.23,5.44-2.23,6.62q0,1.35,2.58,1.35l1.56.13.78,0v3.81h-16.2v-3.81l.78,0c2.18-.14,3.56-.5,4.12-1.07s1.78-2.91,3.67-7L169,334.19h4.18L196,383.54q3,6.1,3.83,6.93t4.29,1.11l.53,0v3.81H179.3v-3.81l.78,0q5.16-.33,5.25-1.61T183,383.45L180,377Zm1.92-4.06h21.79L167,349.33Z"/><path class="cls-3" d="M222.26,338.75h-9.88c-2.54,0-4.18.35-4.9,1s-1.1,2.84-1.13,6.42l0,1.15h-6.07V334.73H257v12.63h-6.07l0-1.15c0-3.58-.4-5.72-1.13-6.42s-2.35-1-4.9-1h-9.88v44.79q.28,6.1.94,6.89t5.91,1.15l.74,0v3.81H214.68v-3.81l.73,0q5-.33,5.93-1.41c.62-.72.92-2.92.92-6.59Z"/><path class="cls-3" d="M273.6,365.65v17.93q0,5.46.82,6.59c.55.75,2.21,1.22,5,1.41l.74,0v3.81h-25.8v-3.81l.78,0c2.76-.19,4.42-.66,5-1.41s.82-2.95.82-6.59v-37c0-3.64-.26-5.83-.8-6.57s-2.19-1.21-5-1.43l-.78,0v-3.81h25.8v3.81l-.74,0c-2.81.22-4.49.7-5,1.43s-.8,2.93-.8,6.57v14.77h25.06V346.58q0-5.46-.8-6.57t-5-1.43l-.78,0v-3.81h25.8v3.81l-.74,0c-2.82.22-4.49.7-5,1.43s-.8,2.93-.8,6.57v37c0,3.64.28,5.84.82,6.59s2.22,1.22,5,1.41l.74,0v3.81H292.1v-3.81l.78,0q4.14-.29,5-1.41t.82-6.59V365.65Z"/><path class="cls-3" d="M361.77,395.43H315.46v-3.81l.78,0q4.14-.29,5-1.41t.82-6.59v-37q0-5.46-.8-6.57t-5-1.43l-.78,0v-3.81H360V345.6h-6.07l-.08-.78q-.12-2.1-.12-2.46c0-1.53-.37-2.52-1.09-3s-2.36-.65-4.9-.65h-13V361.8h8.44a30.83,30.83,0,0,0,5.6-.25c.48-.16.75-1.42.8-3.78l.08-.77h4.31v13.12h-4.31l-.08-.73c-.05-2.16-.44-3.38-1.15-3.65a19.37,19.37,0,0,0-5.25-.41h-8.69v18.21q0,6.81,1.6,7.26a37.51,37.51,0,0,0,6.55.32h5.1c4.08,0,6.37-.19,6.87-.59s.87-2.3,1.08-5.72l.05-.78h6.07Z"/><path class="cls-3" d="M378.69,368.81v14.77q0,5.43.72,6.61c.47.79,1.85,1.25,4.12,1.39l.74,0v3.81H360v-3.81l.77,0c2.77-.19,4.42-.66,5-1.41s.82-2.95.82-6.59v-37q0-5.46-.8-6.57t-5-1.43l-.77,0v-3.81h17.67l7.51-.21,3.73-.08q18.78,0,18.79,15.36A17.27,17.27,0,0,1,396,367.13l11.85,16.53q4.39,5.91,5.56,6.81t4.62,1.11l.77,0v3.81H400.71L383.9,368.81Zm0-4h2.25q6.45,0,10.22-3.81t3.77-10.42q0-11.82-11.65-11.81h-4.59Z"/></svg>