<svg xmlns="http://www.w3.org/2000/svg" xmlns:xlink="http://www.w3.org/1999/xlink" viewBox="0 0 450.08 503.68"><defs><style>.cls-1{fill:url(#linear-gradient);}.cls-2{fill:#fff;}</style><linearGradient id="linear-gradient" x1="34.19" y1="8.84" x2="398.28" y2="421.29" gradientUnits="userSpaceOnUse"><stop offset="0" stop-color="#7355a3"/><stop offset="1" stop-color="#ef4733"/></linearGradient></defs><g id="Layer_1" data-name="Layer 1"><rect class="cls-1" width="450.08" height="450.08" rx="52.51"/><path class="cls-2" d="M57,302.44,34.69,224q-3-9.68-4.12-11c-.76-.91-2.91-1.5-6.46-1.75l-1.24-.06v-6H60.54v6H59.31q-7.79,0-7.79,2.32,0,3,2.14,10.53l12.69,44.49,19.89-62.22h7.35l21.14,66.05L130,224.25q.51-1.68,1.56-5.52a26.78,26.78,0,0,0,1-4.88q0-2.72-7.08-2.71h-1.17v-6H149.9v6l-1.17.06c-1.43.13-2.4.19-2.92.19-2.25,0-3.64.38-4.16,1.14s-1.9,4.67-4.15,11.72l-25,78.19h-6.28L84.67,235.75,63.5,302.44Z"/><path class="cls-2" d="M216.5,301.21H143.18v-6l1.24-.07q6.56-.45,7.86-2.22c.86-1.19,1.3-4.67,1.3-10.44V223.86c0-5.77-.43-9.24-1.27-10.4s-3.48-1.91-7.89-2.26l-1.24-.06v-6h70.53v17.21H204.1l-.13-1.24c-.13-2.21-.2-3.51-.2-3.9q0-3.63-1.72-4.67t-7.76-1H173.64V248H187c5.15,0,8.11-.13,8.86-.39s1.18-2.25,1.27-6l.13-1.22h6.82v20.78h-6.82l-.13-1.17q-.14-5.13-1.83-5.78t-8.3-.65H173.25v28.84q0,10.77,2.54,11.49,1.89.53,10.36.52h8.08q9.69,0,10.89-.94t1.71-9.06l.06-1.23h9.61Z"/><path class="cls-2" d="M237.17,272l-4.89,10.3q-3.53,7.68-3.53,10.48,0,2.14,4.09,2.14c.39,0,1.21.11,2.47.19l1.23.07v6H210.89v-6l1.24-.07q5.19-.32,6.52-1.68t5.81-11.11l35.85-78.06h6.62L303,282.38q4.74,9.67,6.08,11t6.78,1.75l.85.07v6H276.68v-6l1.24-.07c5.45-.34,8.22-1.19,8.31-2.53s-1.15-4.74-3.7-10.33L277.71,272Zm3-6.43h34.5l-17.54-37.35Z"/><path class="cls-2" d="M115.88,327.46H100.23q-6,0-7.76,1.66c-1.14,1.1-1.74,4.49-1.78,10.16l-.07,1.82H81v-20h89.82v20h-9.62l-.06-1.82q-.06-8.5-1.79-10.16t-7.76-1.66H136v70.92q.45,9.67,1.5,10.91c.69.82,3.8,1.42,9.35,1.81l1.17.07v6h-44.1v-6l1.17-.07q7.92-.51,9.38-2.22c1-1.15,1.46-4.62,1.46-10.44Z"/><path class="cls-2" d="M197.16,370.06v28.38c0,5.77.44,9.25,1.3,10.44s3.51,1.92,7.93,2.22l1.17.07v6H166.71v-6l1.23-.07q6.56-.45,7.86-2.22c.86-1.19,1.3-4.67,1.3-10.44V339.86q0-8.66-1.27-10.4c-.84-1.16-3.47-1.92-7.89-2.26l-1.23-.07v-6h40.85v6l-1.17.07c-4.46.34-7.11,1.1-8,2.26s-1.27,4.63-1.27,10.4v23.38h39.69V339.86c0-5.77-.43-9.24-1.27-10.4s-3.48-1.92-7.89-2.26l-1.24-.07v-6H267.3v6l-1.17.07c-4.46.34-7.11,1.1-7.95,2.26s-1.27,4.63-1.27,10.4v58.58q0,8.65,1.3,10.44t7.92,2.22l1.17.07v6H226.45v-6l1.24-.07q6.56-.45,7.86-2.22c.86-1.19,1.3-4.67,1.3-10.44V370.06Z"/><path class="cls-2" d="M336.76,417.21H263.44v-6l1.24-.07q6.56-.45,7.86-2.22t1.29-10.44V339.86q0-8.66-1.26-10.4c-.85-1.16-3.48-1.92-7.89-2.26l-1.24-.07v-6H334v17.2h-9.61l-.13-1.23c-.13-2.21-.2-3.51-.2-3.9q0-3.63-1.72-4.67t-7.76-1H293.9V364h13.38c5.15,0,8.11-.13,8.86-.39s1.18-2.25,1.27-6l.13-1.22h6.82v20.78h-6.82l-.13-1.17q-.14-5.13-1.83-5.78t-8.3-.65H293.51v28.84q0,10.77,2.54,11.49,1.89.53,10.36.52h8.08q9.69,0,10.88-.94t1.72-9.06l.06-1.23h9.61Z"/><path class="cls-2" d="M363.56,375.06v23.38c0,5.73.37,9.22,1.13,10.47s2.94,2,6.53,2.19l1.17.07v6H333.94v-6l1.24-.07q6.56-.45,7.86-2.22t1.29-10.44V339.86q0-8.66-1.26-10.4c-.85-1.16-3.48-1.92-7.89-2.26l-1.24-.07v-6h28l11.89-.33,5.91-.13q29.75,0,29.74,24.32,0,9.93-4.61,16.8T391,372.39l18.76,26.18q7,9.35,8.8,10.78c1.24.95,3.67,1.54,7.31,1.75l1.23.07v6H398.43L371.8,375.06Zm0-6.36h3.57q10.2,0,16.17-6t6-16.5q0-18.71-18.44-18.7h-7.27Z"/></g><g id="Layer_2" data-name="Layer 2"><path class="cls-2" d="M96.87,23h-62a12,12,0,0,0-12,12V97a12,12,0,0,0,12,12h62a12,12,0,0,0,12-12V35A12,12,0,0,0,96.87,23ZM62.18,45.69a2.24,2.24,0,0,1-.27.85,1.32,1.32,0,0,1-.43.47,1,1,0,0,1-.51.15H43.1v16.6H60a1,1,0,0,1,.51.13,1.18,1.18,0,0,1,.43.43,2,2,0,0,1,.27.81,9.39,9.39,0,0,1,.07,1.3,8.69,8.69,0,0,1-.07,1.23,2.19,2.19,0,0,1-.27.83,1.49,1.49,0,0,1-.43.49.89.89,0,0,1-.51.17H43.1V89.48a1,1,0,0,1-.16.51.91.91,0,0,1-.52.37,5.48,5.48,0,0,1-1,.23,13.65,13.65,0,0,1-3.13,0,5.23,5.23,0,0,1-1-.23.94.94,0,0,1-.53-.37,1,1,0,0,1-.15-.51V44.3a2.45,2.45,0,0,1,.77-2.06A2.67,2.67,0,0,1,39,41.66H61a1,1,0,0,1,.51.15,1.24,1.24,0,0,1,.43.49,2.41,2.41,0,0,1,.27.88,9.61,9.61,0,0,1,.07,1.27A8.94,8.94,0,0,1,62.18,45.69ZM97,90.27a2.67,2.67,0,0,1-1.09.32,16.18,16.18,0,0,1-1.9.09c-.76,0-1.36,0-1.8-.05a4.62,4.62,0,0,1-1-.19,1.41,1.41,0,0,1-.6-.34,2.35,2.35,0,0,1-.36-.47L82.09,76.16,74,89.63a2.35,2.35,0,0,1-.36.47,1.48,1.48,0,0,1-.6.34,4.63,4.63,0,0,1-1,.19c-.42,0-1,.05-1.69.05a14.4,14.4,0,0,1-1.79-.09,2.3,2.3,0,0,1-1-.32.61.61,0,0,1-.3-.58,2,2,0,0,1,.35-.89L78.09,72.24l-10-15.95a2.1,2.1,0,0,1-.32-.89.66.66,0,0,1,.34-.6,2.43,2.43,0,0,1,1.09-.32c.49,0,1.14-.08,1.94-.08s1.32,0,1.76.06a5.34,5.34,0,0,1,1,.17,1.47,1.47,0,0,1,.56.3,2.22,2.22,0,0,1,.34.45L82.58,68l7.85-12.64a2.64,2.64,0,0,1,.34-.41,1.44,1.44,0,0,1,.5-.32,3.4,3.4,0,0,1,.91-.19c.39,0,.92-.06,1.6-.06a17.05,17.05,0,0,1,1.79.08,2.56,2.56,0,0,1,1,.28.57.57,0,0,1,.3.59,2.43,2.43,0,0,1-.37.94L86.62,72.05,97.1,88.8a1.9,1.9,0,0,1,.3.89A.68.68,0,0,1,97,90.27Z"/></g></svg>