<svg id="Layer_1" data-name="Layer 1" xmlns="http://www.w3.org/2000/svg" xmlns:xlink="http://www.w3.org/1999/xlink" viewBox="0 0 441 941.68"><defs><style>.cls-1{fill:url(#linear-gradient);}.cls-2{fill:none;stroke-width:3px;}.cls-2,.cls-3{stroke:#fff;stroke-miterlimit:10;}.cls-3,.cls-4{fill:#fff;}.cls-3{stroke-width:4px;}</style><linearGradient id="linear-gradient" x1="-29.02" y1="11.22" x2="491.61" y2="449.98" gradientUnits="userSpaceOnUse"><stop offset="0" stop-color="#e06969"/><stop offset="0.5" stop-color="#9972b2"/><stop offset="1" stop-color="#008fd5"/></linearGradient></defs><g id="Layer_2" data-name="Layer 2"><rect class="cls-1" y="1" width="441" height="441" rx="61.53"/><path class="cls-2" d="M52.75,81.1c-.8,0-1.72,0-2.77.06l-2,0a3.14,3.14,0,0,1-2.33-.81,3,3,0,0,1-.82-2.28,5.66,5.66,0,0,1,.27-1.68,7.89,7.89,0,0,1,.76-1.68c.36,0,.82,0,1.39,0s.94.06,1.16.06h4.23V73.68q0-13.33,5-20.44T72,46.14a10.65,10.65,0,0,1,6,1.55,4.63,4.63,0,0,1,2.31,4,4.58,4.58,0,0,1-1.25,3.09,10.27,10.27,0,0,1-3.52,2.44A9.18,9.18,0,0,0,73,55,6,6,0,0,0,70,54.22q-4.33,0-6.32,4.36t-2,14v1.79c1.27-.15,2.71-.26,4.34-.33s3.32-.11,5.09-.11a3.69,3.69,0,0,1,2.63.84,3.37,3.37,0,0,1,.9,2.58,5,5,0,0,1-.25,1.43,23.47,23.47,0,0,1-1,2.69,12.27,12.27,0,0,0-3.23-.68q-2-.19-6.1-.19c-.65,0-1.14,0-1.49,0s-.66,0-.94.08q0,11.76.37,24.23t.38,13.17q0,4.38-1,5.9A3.79,3.79,0,0,1,58,125.49a12.27,12.27,0,0,1-3.74-.65,26.9,26.9,0,0,1-4.5-2,29.25,29.25,0,0,0,2.47-9.54A145.08,145.08,0,0,0,53,96.39q0-3.86-.21-13.34Z"/><path class="cls-2" d="M99.79,98.39Q91.5,87.28,87,82.43c-3-3.23-5.21-4.91-6.58-5A12,12,0,0,1,83,72.54a5.06,5.06,0,0,1,3.74-1.68q2.86,0,9.7,10,5.2,7.59,8.94,12.36a119.92,119.92,0,0,0,10.46-12.6c2-2.91,2.93-5.25,2.93-7a5.71,5.71,0,0,0-.05-.73,5.57,5.57,0,0,0-.17-.74,27.84,27.84,0,0,1,3.15-1,9.07,9.07,0,0,1,2-.24,5.13,5.13,0,0,1,3.52,1.06A3.84,3.84,0,0,1,128.35,75q0,4.23-18.42,22.65l-.92.87c1,1.34,2.49,3.22,4.33,5.64q11.86,15.6,14.42,15.61h.11a10.87,10.87,0,0,1-2.36,4.77,5,5,0,0,1-3.71,1.62q-3.15,0-10.25-10.57-4.67-6.93-7.86-11.27A132.17,132.17,0,0,0,93.1,116.6q-3,4.19-3,6.67a10.77,10.77,0,0,0,.17,1.46,2,2,0,0,1,0,.33,21.88,21.88,0,0,1-3,.84,12.49,12.49,0,0,1-2.3.24,6,6,0,0,1-3.74-.92,3.68,3.68,0,0,1-1.14-3q0-4.72,16.75-21Z"/><path class="cls-3" d="M355.54,177.85V183Q344.85,184.15,337,193.6t-14.44,29.22l-46,135.06h-5.3L219.6,219.6,173.26,357.88h-5.21L113.4,211.1Q107,194,102,188.91T85.57,183v-5.13H161.3V183q-11.58,2.19-11.57,12.42a36.33,36.33,0,0,0,2.42,11.86l31.71,84.55,30-88.94q-4.68-10.76-9.35-14.45T189,183v-5.13h74.7V183q-11.13,3.08-11.13,12.45a21,21,0,0,0,1.61,7.61l33.25,88.77,24.37-72.19q4.54-13.77,4.49-20.81,0-12.9-15.38-15.83v-5.13Z"/><path class="cls-2" d="M165,44H355.83A41.3,41.3,0,0,1,397,85.17V355.83A41.3,41.3,0,0,1,355.83,397H85.17A41.3,41.3,0,0,1,44,355.83V178"/></g><path class="cls-4" d="M40.53,702.21,26.46,652.66c-1.25-4.07-2.12-6.4-2.6-7s-1.84-1-4.08-1.11l-.78,0v-3.81H42.79v3.81H42q-4.92,0-4.92,1.47a29.31,29.31,0,0,0,1.35,6.65l8,28.1L59,641.47h4.64L77,683.18l9.61-30.35c.22-.71.55-1.87,1-3.49a17.23,17.23,0,0,0,.65-3.08q0-1.72-4.47-1.72h-.74v-3.81H99.23v3.81l-.74,0c-.9.08-1.52.12-1.85.12-1.42,0-2.29.24-2.62.72a57.42,57.42,0,0,0-2.63,7.41L75.61,702.21h-4L58,660.09,44.66,702.21Z"/><path class="cls-4" d="M141.29,701.43H95v-3.81l.77,0c2.77-.19,4.42-.66,5-1.41s.82-2.95.82-6.59v-37q0-5.46-.8-6.57t-5-1.43l-.77,0v-3.81h44.54V651.6h-6.07l-.08-.78c-.09-1.4-.13-2.22-.13-2.46,0-1.53-.36-2.52-1.08-3s-2.36-.65-4.91-.65h-13v23h8.45a30.91,30.91,0,0,0,5.6-.25c.48-.16.74-1.42.8-3.78l.08-.77h4.31v13.12h-4.31l-.08-.73c-.06-2.16-.44-3.38-1.16-3.65a19.22,19.22,0,0,0-5.24-.41H114v18.21q0,6.81,1.6,7.26a37.44,37.44,0,0,0,6.54.32h5.1c4.08,0,6.38-.19,6.88-.59s.86-2.3,1.08-5.72l0-.78h6.07Z"/><path class="cls-4" d="M154.34,683l-3.08,6.51c-1.49,3.24-2.23,5.44-2.23,6.62q0,1.35,2.58,1.35l1.56.13.78,0v3.81h-16.2v-3.81l.78,0c2.18-.14,3.56-.5,4.12-1.07s1.78-2.91,3.67-7L169,640.19h4.18L196,689.54q3,6.11,3.83,6.93t4.29,1.11l.53,0v3.81H179.3v-3.81l.78,0q5.16-.33,5.25-1.61T183,689.45L180,683Zm1.92-4.06h21.79L167,655.33Z"/><path class="cls-4" d="M222.26,644.75h-9.88c-2.54,0-4.18.35-4.9,1s-1.1,2.84-1.13,6.42l0,1.15h-6.07V640.73H257v12.63h-6.07l0-1.15c0-3.58-.4-5.72-1.13-6.42s-2.35-1-4.9-1h-9.88v44.79q.28,6.11.94,6.89t5.91,1.15l.74,0v3.81H214.68v-3.81l.73,0q5-.33,5.93-1.41c.62-.72.92-2.92.92-6.59Z"/><path class="cls-4" d="M273.6,671.65v17.93q0,5.46.82,6.59c.55.75,2.21,1.22,5,1.41l.74,0v3.81h-25.8v-3.81l.78,0c2.76-.19,4.42-.66,5-1.41s.82-2.95.82-6.59v-37c0-3.64-.26-5.83-.8-6.57s-2.19-1.21-5-1.43l-.78,0v-3.81h25.8v3.81l-.74,0c-2.81.22-4.49.7-5,1.43s-.8,2.93-.8,6.57v14.77h25.06V652.58q0-5.46-.8-6.57t-5-1.43l-.78,0v-3.81h25.8v3.81l-.74,0c-2.82.22-4.49.7-5,1.43s-.8,2.93-.8,6.57v37c0,3.64.28,5.84.82,6.59s2.22,1.22,5,1.41l.74,0v3.81H292.1v-3.81l.78,0q4.14-.29,5-1.41t.82-6.59V671.65Z"/><path class="cls-4" d="M361.77,701.43H315.46v-3.81l.78,0q4.14-.29,5-1.41t.82-6.59v-37q0-5.46-.8-6.57t-5-1.43l-.78,0v-3.81H360V651.6h-6.07l-.08-.78q-.12-2.1-.12-2.46c0-1.53-.37-2.52-1.09-3s-2.36-.65-4.9-.65h-13v23h8.44a30.83,30.83,0,0,0,5.6-.25c.48-.16.75-1.42.8-3.78l.08-.77h4.31v13.12h-4.31l-.08-.73c-.05-2.16-.44-3.38-1.15-3.65a19.37,19.37,0,0,0-5.25-.41h-8.69v18.21q0,6.81,1.6,7.26a37.51,37.51,0,0,0,6.55.32h5.1c4.08,0,6.37-.19,6.87-.59s.87-2.3,1.08-5.72l.05-.78h6.07Z"/><path class="cls-4" d="M378.69,674.81v14.77q0,5.43.72,6.61c.47.79,1.85,1.25,4.12,1.39l.74,0v3.81H360v-3.81l.77,0c2.77-.19,4.42-.66,5-1.41s.82-2.95.82-6.59v-37q0-5.46-.8-6.57t-5-1.43l-.77,0v-3.81h17.67l7.51-.21,3.73-.08q18.78,0,18.79,15.36A17.27,17.27,0,0,1,396,673.13l11.85,16.53q4.39,5.91,5.56,6.81t4.62,1.11l.77,0v3.81H400.71L383.9,674.81Zm0-4h2.25q6.45,0,10.22-3.81t3.77-10.42q0-11.82-11.65-11.81h-4.59Z"/></svg>