<svg id="Layer_1" data-name="Layer 1" xmlns="http://www.w3.org/2000/svg" xmlns:xlink="http://www.w3.org/1999/xlink" viewBox="0 0 441 448.06"><defs><style>.cls-1{fill:url(#linear-gradient);}.cls-2{fill:none;stroke-width:3px;}.cls-2,.cls-3{stroke:#fff;stroke-miterlimit:10;}.cls-3{fill:#fff;stroke-width:4px;}</style><linearGradient id="linear-gradient" x1="-29.02" y1="11.22" x2="491.61" y2="449.98" gradientUnits="userSpaceOnUse"><stop offset="0" stop-color="#e06969"/><stop offset="0.5" stop-color="#9972b2"/><stop offset="1" stop-color="#008fd5"/></linearGradient></defs><g id="Layer_2" data-name="Layer 2"><rect class="cls-1" y="1" width="441" height="441" rx="61.53"/><path class="cls-2" d="M52.75,81.1c-.8,0-1.72,0-2.77.06l-2,0a3.14,3.14,0,0,1-2.33-.81,3,3,0,0,1-.82-2.28,5.66,5.66,0,0,1,.27-1.68,7.89,7.89,0,0,1,.76-1.68c.36,0,.82,0,1.39,0s.94.06,1.16.06h4.23V73.68q0-13.33,5-20.44T72,46.14a10.65,10.65,0,0,1,6,1.55,4.63,4.63,0,0,1,2.31,4,4.58,4.58,0,0,1-1.25,3.09,10.27,10.27,0,0,1-3.52,2.44A9.18,9.18,0,0,0,73,55,6,6,0,0,0,70,54.22q-4.33,0-6.32,4.36t-2,14v1.79c1.27-.15,2.71-.26,4.34-.33s3.32-.11,5.09-.11a3.69,3.69,0,0,1,2.63.84,3.37,3.37,0,0,1,.9,2.58,5,5,0,0,1-.25,1.43,23.47,23.47,0,0,1-1,2.69,12.27,12.27,0,0,0-3.23-.68q-2-.19-6.1-.19c-.65,0-1.14,0-1.49,0s-.66,0-.94.08q0,11.76.37,24.23t.38,13.17q0,4.38-1,5.9A3.79,3.79,0,0,1,58,125.49a12.27,12.27,0,0,1-3.74-.65,26.9,26.9,0,0,1-4.5-2,29.25,29.25,0,0,0,2.47-9.54A145.08,145.08,0,0,0,53,96.39q0-3.86-.21-13.34Z"/><path class="cls-2" d="M99.79,98.39Q91.5,87.28,87,82.43c-3-3.23-5.21-4.91-6.58-5A12,12,0,0,1,83,72.54a5.06,5.06,0,0,1,3.74-1.68q2.86,0,9.7,10,5.2,7.59,8.94,12.36a119.92,119.92,0,0,0,10.46-12.6c2-2.91,2.93-5.25,2.93-7a5.71,5.71,0,0,0-.05-.73,5.57,5.57,0,0,0-.17-.74,27.84,27.84,0,0,1,3.15-1,9.07,9.07,0,0,1,2-.24,5.13,5.13,0,0,1,3.52,1.06A3.84,3.84,0,0,1,128.35,75q0,4.23-18.42,22.65l-.92.87c1,1.34,2.49,3.22,4.33,5.64q11.86,15.6,14.42,15.61h.11a10.87,10.87,0,0,1-2.36,4.77,5,5,0,0,1-3.71,1.62q-3.15,0-10.25-10.57-4.67-6.93-7.86-11.27A132.17,132.17,0,0,0,93.1,116.6q-3,4.19-3,6.67a10.77,10.77,0,0,0,.17,1.46,2,2,0,0,1,0,.33,21.88,21.88,0,0,1-3,.84,12.49,12.49,0,0,1-2.3.24,6,6,0,0,1-3.74-.92,3.68,3.68,0,0,1-1.14-3q0-4.72,16.75-21Z"/><path class="cls-3" d="M355.54,177.85V183Q344.85,184.15,337,193.6t-14.44,29.22l-46,135.06h-5.3L219.6,219.6,173.26,357.88h-5.21L113.4,211.1Q107,194,102,188.91T85.57,183v-5.13H161.3V183q-11.58,2.19-11.57,12.42a36.33,36.33,0,0,0,2.42,11.86l31.71,84.55,30-88.94q-4.68-10.76-9.35-14.45T189,183v-5.13h74.7V183q-11.13,3.08-11.13,12.45a21,21,0,0,0,1.61,7.61l33.25,88.77,24.37-72.19q4.54-13.77,4.49-20.81,0-12.9-15.38-15.83v-5.13Z"/><path class="cls-2" d="M165,45H355.83A41.3,41.3,0,0,1,397,86.17V356.83A41.3,41.3,0,0,1,355.83,398H85.17A41.3,41.3,0,0,1,44,356.83V179"/></g></svg>