<?xml version="1.0" encoding="UTF-8"?>
<svg version="1.1" xmlns="http://www.w3.org/2000/svg">
<path d="M0 0 C1.77930507 0.92967484 3.57568536 1.82642919 5.37207031 2.72265625 C26.08546094 13.17763908 44.77065296 27.28474144 61.80175781 42.94140625 C63.13098162 44.1127529 64.46414189 45.27965218 65.80175781 46.44140625 C67.13536572 47.60775904 68.46866305 48.77446699 69.80175781 49.94140625 C70.4583725 50.51072642 71.11498719 51.08004658 71.79149929 51.66661888 C80.40760077 59.26594449 88.43453087 67.45420563 96.53800011 75.59091377 C98.24270481 77.29882597 99.9476363 79.00651184 101.65277314 80.7139926 C105.36252362 84.42985281 109.07069921 88.14727713 112.77749507 91.86608447 C118.32667158 97.43320368 123.87888716 102.99728478 129.43172254 108.56075422 C138.8966951 118.04399387 148.35937685 127.52951625 157.82084846 137.0162487 C171.73163078 150.96409498 185.6458372 164.90852227 199.56080871 178.85218908 C204.62879285 183.93063529 209.69672116 189.00913719 214.76465619 194.0876324 C216.05157015 195.37722632 217.33848588 196.66681848 218.62540335 197.95640889 C227.8745164 207.22473803 237.12322367 216.49347192 246.37165436 225.76248194 C285.13559113 264.6125847 323.90979588 303.45241855 362.69117487 342.28510967 C365.5197982 345.11748241 368.34840559 347.94987106 371.17701327 350.78225941 C395.7151997 375.35323109 420.2539902 399.92359947 444.79321268 424.49353643 C464.11613056 443.84064004 483.4387412 463.18805042 502.76075511 482.53605684 C505.00739355 484.78571461 507.25403953 487.03536484 509.50068596 489.28501462 C544.11437058 523.94509582 578.72271041 558.61049448 613.31646729 593.29046631 C614.43309087 594.40987173 614.43309087 594.40987173 615.57227251 595.5518914 C627.57565309 607.58523132 639.57863564 619.61896825 651.58155875 631.65276448 C686.14766739 666.3077712 720.71733545 700.95919664 755.30944252 735.58825493 C756.02048289 736.30005837 756.73152326 737.01186182 757.4641103 737.74523506 C772.3705578 752.66756707 787.27843459 767.58847029 802.18811791 782.50756921 C809.16949055 789.49335194 816.15057965 796.47941799 823.13151932 803.46563339 C823.81884016 804.15346183 824.506161 804.84129026 825.21430975 805.54996198 C847.36955633 827.72183876 869.50383834 849.91450515 891.62716999 872.11822348 C913.89981917 894.47162877 936.19243044 916.80491086 958.51326526 939.11020675 C961.59503375 942.18984126 964.67656899 945.26970907 967.75796318 948.34971809 C968.36202499 948.95349178 968.96608679 949.55726546 969.5884535 950.17933532 C979.16629644 959.75381697 988.72204622 969.3500408 998.26884761 978.95546405 C1007.64852506 988.39184119 1017.05099685 997.80497652 1026.47847037 1007.19360822 C1032.01001074 1012.70375975 1037.52289598 1018.23113374 1043.01024961 1023.78529849 C1047.07873664 1027.89935656 1051.18022826 1031.9790998 1055.29578878 1036.04601558 C1056.95053617 1037.69172714 1058.59431815 1039.3485522 1060.22588915 1041.01724377 C1068.11659946 1049.76497668 1068.11659946 1049.76497668 1078.37416466 1054.66720282 C1081.42613169 1054.4405315 1083.90693954 1053.89413296 1086.80175781 1052.94140625 C1088.13452321 1052.77850053 1089.47227558 1052.64960211 1090.8125 1052.56835938 C1091.97942383 1052.45427734 1093.14634766 1052.34019531 1094.34863281 1052.22265625 C1110.82570343 1050.63742959 1127.24372144 1049.30732971 1143.80175781 1048.94140625 C1145.00977051 1048.90853516 1145.00977051 1048.90853516 1146.2421875 1048.875 C1212.51515131 1047.23254737 1278.59973805 1059.58524766 1340.80175781 1081.94140625 C1342.0436084 1082.38709961 1343.28545898 1082.83279297 1344.56494141 1083.29199219 C1364.29881107 1090.48417998 1383.07045554 1099.50007836 1401.80175781 1108.94140625 C1402.72118164 1109.40321289 1403.64060547 1109.86501953 1404.58789062 1110.34082031 C1436.48675143 1126.46710271 1466.39860273 1147.06067914 1493.80175781 1169.94140625 C1494.38296387 1170.42351562 1494.96416992 1170.905625 1495.56298828 1171.40234375 C1502.962109 1177.54388963 1510.14860008 1183.88585247 1517.18457031 1190.44189453 C1518.91259432 1192.04417766 1520.6533705 1193.63182971 1522.39550781 1195.21875 C1530.73413027 1202.85326552 1538.57587422 1210.81771306 1546.18798828 1219.17480469 C1547.71719539 1220.84883535 1549.25853243 1222.51051098 1550.80566406 1224.16796875 C1556.74651613 1230.54858231 1562.37503027 1237.1187062 1567.80175781 1243.94140625 C1568.2082959 1244.44833008 1568.61483398 1244.95525391 1569.03369141 1245.47753906 C1581.4953302 1261.0248717 1593.29680439 1277.00154652 1603.80175781 1293.94140625 C1604.19169922 1294.56966309 1604.58164063 1295.19791992 1604.98339844 1295.84521484 C1611.26066162 1306.01769628 1617.0961514 1316.43961297 1622.80175781 1326.94140625 C1623.41220947 1328.05443115 1624.02266113 1329.16745605 1624.65161133 1330.31420898 C1629.40146781 1339.03783424 1633.66596516 1347.89137709 1637.61425781 1357.00390625 C1637.9110141 1357.6857196 1638.20777039 1358.36753296 1638.51351929 1359.07000732 C1673.14084216 1438.86125111 1687.74652571 1525.92923124 1647.85253906 1763.58984375 C1641.51797999 1779.36134881 1634.42678787 1794.75542202 1626.80175781 1809.94140625 C1626.33914551 1810.8638916 1625.8765332 1811.78637695 1625.39990234 1812.73681641 C1607.8161513 1847.56100777 1585.81859294 1880.03730606 1560.80175781 1909.94140625 C1560.30466309 1910.53759766 1559.80756836 1911.13378906 1559.29541016 1911.74804688 C1547.83220173 1925.45101892 1535.53510978 1938.29440991 1522.92675781 1950.94140625 C1522.43452728 1951.43631561 1521.94229675 1951.93122498 1521.43515015 1952.44113159 C1515.73793162 1958.16188498 1509.95845152 1963.7143082 1503.80175781 1968.94140625 C1502.68366723 1969.91432772 1501.56644975 1970.88825367 1500.45019531 1971.86328125 C1492.42670143 1978.81398588 1484.24616723 1985.50857881 1475.80175781 1991.94140625 C1475.11017578 1992.46959961 1474.41859375 1992.99779297 1473.70605469 1993.54199219 C1456.22568527 2006.82676273 1437.88532952 2019.07084179 1418.80175781 2029.94140625 C1418.04233887 2030.37453125 1417.28291992 2030.80765625 1416.50048828 2031.25390625 C1357.99189158 2064.37849019 1295.02449132 2085.06705422 1228.42675781 2094.19140625 C1227.33766113 2094.34246826 1226.24856445 2094.49353027 1225.12646484 2094.64916992 C1203.43298122 2097.45378903 1181.72078991 2098.32123488 1159.86425781 2098.25390625 C1158.62506592 2098.25208344 1157.38587402 2098.25026062 1156.10913086 2098.24838257 C1135.85416798 2098.19846386 1115.89905145 2097.48391034 1095.80175781 2094.94140625 C1094.80151581 2094.81765625 1094.80151581 2094.81765625 1093.78106689 2094.69140625 C1005.60238983 2083.74439809 921.16729238 2050.58594623 801.75097656 1960.64453125 C799.54748285 1958.6014027 797.28988468 1956.63240461 795.01269531 1954.671875 C790.39139738 1950.64293897 786.06203222 1946.3486795 781.73925781 1942.00390625 C780.97548828 1941.24400391 780.21171875 1940.48410156 779.42480469 1939.70117188 C775.22339349 1935.49257264 771.18922571 1931.19730439 767.30981445 1926.69018555 C765.4386133 1924.52029501 763.49573428 1922.42110518 761.55175781 1920.31640625 C756.52459354 1914.73820373 751.93364565 1908.86703293 747.34667969 1902.92773438 C745.7163673 1900.83161845 744.06566325 1898.75282454 742.41113281 1896.67578125 C734.29492902 1886.44558426 726.82413317 1875.94957715 719.80175781 1864.94140625 C719.28790527 1864.13896484 718.77405273 1863.33652344 718.24462891 1862.50976562 C669.0398473 1785.31985908 640.84541432 1698.28541429 634.61425781 1532.87890625 C634.69063477 1531.70658447 634.76701172 1530.5342627 634.84570312 1529.32641602 C635.30135242 1523.25407855 636.03206723 1517.31540135 637.05957031 1511.3125 C639.85226976 1498.96957586 639.85226976 1498.96957586 636.90722656 1487.3359375 C634.32587756 1484.67842502 631.25632667 1482.763617 628.18017578 1480.7265625 C623.51488986 1477.2249642 619.56782779 1472.87264694 615.51239014 1468.69570923 C613.0778913 1466.19140939 610.61956805 1463.71125404 608.15722656 1461.234375 C607.31828857 1460.38383545 606.47935059 1459.5332959 605.61499023 1458.65698242 C603.48927051 1456.60505319 601.35210865 1454.6738985 599.11352539 1452.75317383 C593.98259297 1448.30116985 589.23766134 1443.483019 584.45800781 1438.66015625 C583.47999362 1437.67772247 582.5016753 1436.69559137 581.52307129 1435.71374512 C577.92676798 1432.10421307 574.33599186 1428.48919919 570.74505615 1424.87432861 C567.69820202 1421.80759875 564.64920655 1418.74302711 561.59745789 1415.6811676 C560.18417152 1414.26149468 558.77398671 1412.83873626 557.3638916 1411.41589355 C556.48938354 1410.53808228 555.61487549 1409.660271 554.71386719 1408.75585938 C553.95634155 1407.99309692 553.19881592 1407.23033447 552.41833496 1406.44445801 C550.42576918 1404.53834364 548.41953387 1402.74903391 546.32484436 1400.96250916 C540.09677027 1395.54798572 534.34748385 1389.62655857 528.52026367 1383.78930664 C527.19076325 1382.46116319 525.8610506 1381.13323214 524.53114319 1379.80549622 C520.93801726 1376.21690939 517.34803801 1372.62519034 513.7587707 1369.03274465 C509.99193243 1365.26336453 506.22264341 1361.49643636 502.45375061 1357.72911072 C496.12646597 1351.40364246 489.80128597 1345.07607541 483.47729492 1338.74731445 C476.17873951 1331.44331745 468.87658877 1324.14292974 461.57256025 1316.84440619 C455.28769214 1310.56408436 449.00478528 1304.28180548 442.7234965 1297.99790376 C438.97802701 1294.25087984 435.23189608 1290.50452391 431.48399162 1286.75993538 C427.95964531 1283.23848981 424.43777736 1279.71458379 420.91776085 1276.18881035 C419.62990445 1274.89963814 418.3412083 1273.61130416 417.05158615 1272.32389832 C411.32471535 1266.6059586 405.63764831 1260.90615828 400.38112736 1254.74550533 C397.40106477 1251.34140767 394.16769177 1248.18576241 390.95800781 1245 C390.20745117 1244.25090363 389.45689453 1243.50180725 388.68359375 1242.73001099 C387.06695533 1241.11715382 385.44916356 1239.50545201 383.83032227 1237.89480591 C381.26305404 1235.34039633 378.69900584 1232.78279288 376.13574219 1230.22436523 C370.69388774 1224.79389345 365.24811641 1219.36736021 359.80175781 1213.94140625 C353.48650758 1207.64981593 347.17290602 1201.35658953 340.86352539 1195.05911255 C338.34694259 1192.5489753 335.82734882 1190.04188789 333.30761719 1187.53491211 C331.7534316 1185.9843617 330.19938773 1184.43366923 328.64550781 1182.8828125 C327.95231445 1182.19478546 327.25912109 1181.50675842 326.54492188 1180.79788208 C322.71569182 1176.96906364 319.10048154 1173.02544606 315.56214905 1168.92764282 C312.53237303 1165.50916868 309.2909437 1162.30844961 306.04980469 1159.09179688 C305.30900162 1158.35245407 304.56819855 1157.61311127 303.8049469 1156.85136414 C302.20958964 1155.25978761 300.61307907 1153.66936644 299.01551819 1152.08000183 C296.48185369 1149.55919834 293.95141147 1147.0351991 291.42175293 1144.51037598 C286.05122873 1139.15123329 280.67678727 1133.79602982 275.30175781 1128.44140625 C269.06911267 1122.23242286 262.8381175 1116.02180225 256.61134338 1109.80693054 C254.1279997 1107.33003138 251.64164484 1104.85618284 249.15515137 1102.38244629 C247.62118873 1100.8521189 246.08736785 1099.3216494 244.55371094 1097.79101562 C243.86986832 1097.11233932 243.1860257 1096.43366302 242.48146057 1095.73442078 C241.83406418 1095.08709488 241.18666779 1094.43976898 240.51965332 1093.77282715 C239.96737312 1093.22276756 239.41509293 1092.67270798 238.84607697 1092.10597992 C237.11145769 1090.26932384 235.47571461 1088.39516705 233.83520412 1086.4756937 C228.68670137 1080.5673635 223.09258288 1075.09406474 217.54872131 1069.56138611 C216.30248051 1068.31399182 215.05645758 1067.06637983 213.81063265 1065.8185702 C210.40086078 1062.40463634 206.98799233 1058.99381309 203.57458794 1055.58351171 C199.8883365 1051.89952691 196.2049688 1048.21266076 192.52122498 1044.52616882 C185.30993508 1037.31043579 178.09594849 1030.09740465 170.88098676 1022.88534325 C165.01649352 1017.02310975 159.15297872 1011.15989928 153.29015923 1005.2959919 C152.45525834 1004.46093778 151.62035746 1003.62588367 150.76015655 1002.76552488 C149.06399691 1001.06904551 147.3678395 999.37256389 145.67168432 997.67608006 C129.77228209 981.7738273 113.86981801 965.87463929 97.96630334 949.97649945 C84.32483864 936.3395024 70.68599792 922.69988562 57.04907227 909.05834961 C41.20723514 893.21115919 25.36377472 877.36559459 9.51772588 861.52261549 C7.82753922 859.83274737 6.13735464 858.14287716 4.44717216 856.45300484 C3.61560148 855.62158842 2.78403079 854.79017201 1.92726098 853.93356116 C-3.92847889 848.07868417 -9.78305868 842.22264868 -15.63718987 836.36616325 C-22.77287769 829.22766886 -29.91034853 822.09096298 -37.0501005 814.95653336 C-40.69180001 811.31745926 -44.33270039 807.67759518 -47.97143173 804.03555298 C-51.30449682 800.69950108 -54.63987468 797.36577959 -57.97708637 794.03387589 C-59.18178415 792.83029212 -60.38564648 791.62587141 -61.58857106 790.42051541 C-67.02728344 784.9716569 -72.46954314 779.59604641 -78.32423776 774.5887956 C-81.96813706 771.38553694 -85.35757993 767.91913093 -88.78187561 764.48475647 C-89.60864963 763.65954245 -90.43542364 762.83432842 -91.28725141 761.98410791 C-93.5605881 759.71404902 -95.83169652 757.44178898 -98.10183775 755.16853535 C-100.55881324 752.7092848 -103.01868002 750.25292904 -105.47816467 747.79618835 C-110.28754687 742.99124037 -115.09423678 738.18360793 -119.89994986 733.37499053 C-123.80756658 729.46511054 -127.7161642 725.55621364 -131.62545586 721.64800835 C-132.18297385 721.09064359 -132.74049184 720.53327883 -133.31490431 719.95902423 C-134.4476837 718.82656459 -135.58046531 717.69410719 -136.71324914 716.561652 C-147.32198852 705.95576053 -157.92766711 695.34681259 -168.53229272 684.73680805 C-177.62111213 675.64352123 -186.71255012 666.55285937 -195.8059082 657.46411133 C-206.37932983 646.89604763 -216.95111908 636.32635534 -227.52032846 625.75407881 C-228.64849831 624.62559042 -229.77667025 623.49710412 -230.90484428 622.36861992 C-231.45984967 621.81346026 -232.01485506 621.25830059 -232.58667879 620.68631791 C-236.48789022 616.78424498 -240.39025685 612.88332966 -244.29307747 608.98286629 C-249.05271781 604.22603767 -253.81055772 599.46741686 -258.56613595 594.70652706 C-260.99005438 592.27999013 -263.41474766 589.85424176 -265.84163666 587.43067551 C-268.47727891 584.79777363 -271.10980913 582.16179809 -273.74159241 579.52503967 C-274.50171712 578.76714569 -275.26184182 578.0092517 -276.04500061 577.22839123 C-280.06354037 573.19514672 -283.9161251 569.07724486 -287.61605018 564.74897045 C-290.45478853 561.50587367 -293.52446503 558.49308341 -296.58300781 555.45898438 C-297.2847966 554.75865585 -297.98658539 554.05832733 -298.7096405 553.33677673 C-300.21987307 551.83032271 -301.73125878 550.32502399 -303.24369812 548.82078552 C-305.64294802 546.43440672 -308.03896607 544.04482409 -310.4342041 541.65441895 C-315.51940719 536.58059247 -320.60852913 531.5107081 -325.69824219 526.44140625 C-331.60046723 520.56285081 -337.50103671 514.68265334 -343.39738464 508.79820251 C-345.74777173 506.45425554 -348.10117089 504.11336247 -350.45471191 501.77258301 C-351.90778276 500.3231477 -353.3607117 498.87357011 -354.81347656 497.42382812 C-355.45991623 496.78255478 -356.1063559 496.14128143 -356.77238464 495.48057556 C-416.08057864 436.17919385 -447.55502199 352.5101489 -448.19873047 269.37011719 C-448.19201363 222.20446279 -437.70515545 175.42294068 -417.19824219 132.94140625 C-416.79653809 132.10528809 -416.39483398 131.26916992 -415.98095703 130.40771484 C-404.33073675 106.46029475 -389.13482776 84.26347739 -370.90136719 64.85546875 C-368.82743841 62.61970159 -366.82855172 60.35873075 -364.84277344 58.046875 C-361.31670838 54.00179305 -357.56121277 50.2840236 -353.63574219 46.62890625 C-352.93956787 45.98010498 -352.24339355 45.33130371 -351.52612305 44.6628418 C-345.03941815 38.68628576 -338.29587 33.17292041 -331.19824219 27.94140625 C-330.54774902 27.46106934 -329.89725586 26.98073242 -329.22705078 26.48583984 C-296.79031971 2.70921337 -261.08146105 -14.60619084 -222.19824219 -25.05859375 C-221.33166992 -25.29271973 -220.46509766 -25.5268457 -219.57226562 -25.76806641 C-146.90460257 -44.9105244 -66.25313497 -34.91098525 0 0 Z " fill="#FEFEFE" transform="translate(1465.1982421875,1076.05859375)"/>
<path d="M0 0 C1.77930507 0.92967484 3.57568536 1.82642919 5.37207031 2.72265625 C26.08546094 13.17763908 44.77065296 27.28474144 61.80175781 42.94140625 C63.13098162 44.1127529 64.46414189 45.27965218 65.80175781 46.44140625 C67.13536572 47.60775904 68.46866305 48.77446699 69.80175781 49.94140625 C70.4583725 50.51072642 71.11498719 51.08004658 71.79149929 51.66661888 C80.40760077 59.26594449 88.43453087 67.45420563 96.53800011 75.59091377 C98.24270481 77.29882597 99.9476363 79.00651184 101.65277314 80.7139926 C105.36252362 84.42985281 109.07069921 88.14727713 112.77749507 91.86608447 C118.32667158 97.43320368 123.87888716 102.99728478 129.43172254 108.56075422 C138.8966951 118.04399387 148.35937685 127.52951625 157.82084846 137.0162487 C171.73163078 150.96409498 185.6458372 164.90852227 199.56080871 178.85218908 C204.62879285 183.93063529 209.69672116 189.00913719 214.76465619 194.0876324 C216.05157015 195.37722632 217.33848588 196.66681848 218.62540335 197.95640889 C227.8745164 207.22473803 237.12322367 216.49347192 246.37165436 225.76248194 C285.13559113 264.6125847 323.90979588 303.45241855 362.69117487 342.28510967 C365.5197982 345.11748241 368.34840559 347.94987106 371.17701327 350.78225941 C395.7151997 375.35323109 420.2539902 399.92359947 444.79321268 424.49353643 C464.11613056 443.84064004 483.4387412 463.18805042 502.76075511 482.53605684 C505.00739355 484.78571461 507.25403953 487.03536484 509.50068596 489.28501462 C544.11437058 523.94509582 578.72271041 558.61049448 613.31646729 593.29046631 C614.43309087 594.40987173 614.43309087 594.40987173 615.57227251 595.5518914 C627.57565309 607.58523132 639.57863564 619.61896825 651.58155875 631.65276448 C686.14766739 666.3077712 720.71733545 700.95919664 755.30944252 735.58825493 C756.02048289 736.30005837 756.73152326 737.01186182 757.4641103 737.74523506 C772.3705578 752.66756707 787.27843459 767.58847029 802.18811791 782.50756921 C809.16949055 789.49335194 816.15057965 796.47941799 823.13151932 803.46563339 C823.81884016 804.15346183 824.506161 804.84129026 825.21430975 805.54996198 C847.36955633 827.72183876 869.50383834 849.91450515 891.62716999 872.11822348 C913.89981917 894.47162877 936.19243044 916.80491086 958.51326526 939.11020675 C961.59503375 942.18984126 964.67656899 945.26970907 967.75796318 948.34971809 C968.36202499 948.95349178 968.96608679 949.55726546 969.5884535 950.17933532 C979.16629644 959.75381697 988.72204622 969.3500408 998.26884761 978.95546405 C1007.64852506 988.39184119 1017.05099685 997.80497652 1026.47847037 1007.19360822 C1032.01001074 1012.70375975 1037.52289598 1018.23113374 1043.01024961 1023.78529849 C1047.07873664 1027.89935656 1051.18022826 1031.9790998 1055.29578878 1036.04601558 C1056.95053617 1037.69172714 1058.59431815 1039.3485522 1060.22588915 1041.01724377 C1068.11659946 1049.76497668 1068.11659946 1049.76497668 1078.37416466 1054.66720282 C1081.42613169 1054.4405315 1083.90693954 1053.89413296 1086.80175781 1052.94140625 C1088.13452321 1052.77850053 1089.47227558 1052.64960211 1090.8125 1052.56835938 C1091.97942383 1052.45427734 1093.14634766 1052.34019531 1094.34863281 1052.22265625 C1110.82570343 1050.63742959 1127.24372144 1049.30732971 1143.80175781 1048.94140625 C1145.00977051 1048.90853516 1145.00977051 1048.90853516 1146.2421875 1048.875 C1212.51515131 1047.23254737 1278.59973805 1059.58524766 1340.80175781 1081.94140625 C1342.0436084 1082.38709961 1343.28545898 1082.83279297 1344.56494141 1083.29199219 C1364.29881107 1090.48417998 1383.07045554 1099.50007836 1401.80175781 1108.94140625 C1402.72118164 1109.40321289 1403.64060547 1109.86501953 1404.58789062 1110.34082031 C1436.48675143 1126.46710271 1466.39860273 1147.06067914 1493.80175781 1169.94140625 C1494.38296387 1170.42351562 1494.96416992 1170.905625 1495.56298828 1171.40234375 C1502.962109 1177.54388963 1510.14860008 1183.88585247 1517.18457031 1190.44189453 C1518.91259432 1192.04417766 1520.6533705 1193.63182971 1522.39550781 1195.21875 C1530.73413027 1202.85326552 1538.57587422 1210.81771306 1546.18798828 1219.17480469 C1547.71719539 1220.84883535 1549.25853243 1222.51051098 1550.80566406 1224.16796875 C1556.74651613 1230.54858231 1562.37503027 1237.1187062 1567.80175781 1243.94140625 C1568.2082959 1244.44833008 1568.61483398 1244.95525391 1569.03369141 1245.47753906 C1581.4953302 1261.0248717 1593.29680439 1277.00154652 1603.80175781 1293.94140625 C1604.19169922 1294.56966309 1604.58164063 1295.19791992 1604.98339844 1295.84521484 C1611.26066162 1306.01769628 1617.0961514 1316.43961297 1622.80175781 1326.94140625 C1623.41220947 1328.05443115 1624.02266113 1329.16745605 1624.65161133 1330.31420898 C1629.40146781 1339.03783424 1633.66596516 1347.89137709 1637.61425781 1357.00390625 C1637.9110141 1357.6857196 1638.20777039 1358.36753296 1638.51351929 1359.07000732 C1673.14084216 1438.86125111 1687.74652571 1525.92923124 1647.85253906 1763.58984375 C1641.51797999 1779.36134881 1634.42678787 1794.75542202 1626.80175781 1809.94140625 C1626.33914551 1810.8638916 1625.8765332 1811.78637695 1625.39990234 1812.73681641 C1607.8161513 1847.56100777 1585.81859294 1880.03730606 1560.80175781 1909.94140625 C1560.30466309 1910.53759766 1559.80756836 1911.13378906 1559.29541016 1911.74804688 C1547.83220173 1925.45101892 1535.53510978 1938.29440991 1522.92675781 1950.94140625 C1522.43452728 1951.43631561 1521.94229675 1951.93122498 1521.43515015 1952.44113159 C1515.73793162 1958.16188498 1509.95845152 1963.7143082 1503.80175781 1968.94140625 C1502.68366723 1969.91432772 1501.56644975 1970.88825367 1500.45019531 1971.86328125 C1492.42670143 1978.81398588 1484.24616723 1985.50857881 1475.80175781 1991.94140625 C1475.11017578 1992.46959961 1474.41859375 1992.99779297 1473.70605469 1993.54199219 C1456.22568527 2006.82676273 1437.88532952 2019.07084179 1418.80175781 2029.94140625 C1418.04233887 2030.37453125 1417.28291992 2030.80765625 1416.50048828 2031.25390625 C1357.99189158 2064.37849019 1295.02449132 2085.06705422 1228.42675781 2094.19140625 C1227.33766113 2094.34246826 1226.24856445 2094.49353027 1225.12646484 2094.64916992 C1203.43298122 2097.45378903 1181.72078991 2098.32123488 1159.86425781 2098.25390625 C1158.62506592 2098.25208344 1157.38587402 2098.25026062 1156.10913086 2098.24838257 C1135.85416798 2098.19846386 1115.89905145 2097.48391034 1095.80175781 2094.94140625 C1094.80151581 2094.81765625 1094.80151581 2094.81765625 1093.78106689 2094.69140625 C1005.60238983 2083.74439809 921.16729238 2050.58594623 801.75097656 1960.64453125 C799.54748285 1958.6014027 797.28988468 1956.63240461 795.01269531 1954.671875 C790.39139738 1950.64293897 786.06203222 1946.3486795 781.73925781 1942.00390625 C780.97548828 1941.24400391 780.21171875 1940.48410156 779.42480469 1939.70117188 C775.22339349 1935.49257264 771.18922571 1931.19730439 767.30981445 1926.69018555 C765.4386133 1924.52029501 763.49573428 1922.42110518 761.55175781 1920.31640625 C756.52459354 1914.73820373 751.93364565 1908.86703293 747.34667969 1902.92773438 C745.7163673 1900.83161845 744.06566325 1898.75282454 742.41113281 1896.67578125 C734.29492902 1886.44558426 726.82413317 1875.94957715 719.80175781 1864.94140625 C719.28790527 1864.13896484 718.77405273 1863.33652344 718.24462891 1862.50976562 C669.0398473 1785.31985908 640.84541432 1698.28541429 634.61425781 1532.87890625 C634.69063477 1531.70658447 634.76701172 1530.5342627 634.84570312 1529.32641602 C635.30135242 1523.25407855 636.03206723 1517.31540135 637.05957031 1511.3125 C639.85226976 1498.96957586 639.85226976 1498.96957586 636.90722656 1487.3359375 C634.32587756 1484.67842502 631.25632667 1482.763617 628.18017578 1480.7265625 C623.51488986 1477.2249642 619.56782779 1472.87264694 615.51239014 1468.69570923 C613.0778913 1466.19140939 610.61956805 1463.71125404 608.15722656 1461.234375 C607.31828857 1460.38383545 606.47935059 1459.5332959 605.61499023 1458.65698242 C603.48927051 1456.60505319 601.35210865 1454.6738985 599.11352539 1452.75317383 C593.98259297 1448.30116985 589.23766134 1443.483019 584.45800781 1438.66015625 C583.47999362 1437.67772247 582.5016753 1436.69559137 581.52307129 1435.71374512 C577.92676798 1432.10421307 574.33599186 1428.48919919 570.74505615 1424.87432861 C567.69820202 1421.80759875 564.64920655 1418.74302711 561.59745789 1415.6811676 C560.18417152 1414.26149468 558.77398671 1412.83873626 557.3638916 1411.41589355 C556.48938354 1410.53808228 555.61487549 1409.660271 554.71386719 1408.75585938 C553.95634155 1407.99309692 553.19881592 1407.23033447 552.41833496 1406.44445801 C550.42576918 1404.53834364 548.41953387 1402.74903391 546.32484436 1400.96250916 C540.09677027 1395.54798572 534.34748385 1389.62655857 528.52026367 1383.78930664 C527.19076325 1382.46116319 525.8610506 1381.13323214 524.53114319 1379.80549622 C520.93801726 1376.21690939 517.34803801 1372.62519034 513.7587707 1369.03274465 C509.99193243 1365.26336453 506.22264341 1361.49643636 502.45375061 1357.72911072 C496.12646597 1351.40364246 489.80128597 1345.07607541 483.47729492 1338.74731445 C476.17873951 1331.44331745 468.87658877 1324.14292974 461.57256025 1316.84440619 C455.28769214 1310.56408436 449.00478528 1304.28180548 442.7234965 1297.99790376 C438.97802701 1294.25087984 435.23189608 1290.50452391 431.48399162 1286.75993538 C427.95964531 1283.23848981 424.43777736 1279.71458379 420.91776085 1276.18881035 C419.62990445 1274.89963814 418.3412083 1273.61130416 417.05158615 1272.32389832 C411.32471535 1266.6059586 405.63764831 1260.90615828 400.38112736 1254.74550533 C397.40106477 1251.34140767 394.16769177 1248.18576241 390.95800781 1245 C390.20745117 1244.25090363 389.45689453 1243.50180725 388.68359375 1242.73001099 C387.06695533 1241.11715382 385.44916356 1239.50545201 383.83032227 1237.89480591 C381.26305404 1235.34039633 378.69900584 1232.78279288 376.13574219 1230.22436523 C370.69388774 1224.79389345 365.24811641 1219.36736021 359.80175781 1213.94140625 C353.48650758 1207.64981593 347.17290602 1201.35658953 340.86352539 1195.05911255 C338.34694259 1192.5489753 335.82734882 1190.04188789 333.30761719 1187.53491211 C331.7534316 1185.9843617 330.19938773 1184.43366923 328.64550781 1182.8828125 C327.95231445 1182.19478546 327.25912109 1181.50675842 326.54492188 1180.79788208 C322.71569182 1176.96906364 319.10048154 1173.02544606 315.56214905 1168.92764282 C312.53237303 1165.50916868 309.2909437 1162.30844961 306.04980469 1159.09179688 C305.30900162 1158.35245407 304.56819855 1157.61311127 303.8049469 1156.85136414 C302.20958964 1155.25978761 300.61307907 1153.66936644 299.01551819 1152.08000183 C296.48185369 1149.55919834 293.95141147 1147.0351991 291.42175293 1144.51037598 C286.05122873 1139.15123329 280.67678727 1133.79602982 275.30175781 1128.44140625 C269.06911267 1122.23242286 262.8381175 1116.02180225 256.61134338 1109.80693054 C254.1279997 1107.33003138 251.64164484 1104.85618284 249.15515137 1102.38244629 C247.62118873 1100.8521189 246.08736785 1099.3216494 244.55371094 1097.79101562 C243.86986832 1097.11233932 243.1860257 1096.43366302 242.48146057 1095.73442078 C241.83406418 1095.08709488 241.18666779 1094.43976898 240.51965332 1093.77282715 C239.96737312 1093.22276756 239.41509293 1092.67270798 238.84607697 1092.10597992 C237.11145769 1090.26932384 235.47571461 1088.39516705 233.83520412 1086.4756937 C228.68670137 1080.5673635 223.09258288 1075.09406474 217.54872131 1069.56138611 C216.30248051 1068.31399182 215.05645758 1067.06637983 213.81063265 1065.8185702 C210.40086078 1062.40463634 206.98799233 1058.99381309 203.57458794 1055.58351171 C199.8883365 1051.89952691 196.2049688 1048.21266076 192.52122498 1044.52616882 C185.30993508 1037.31043579 178.09594849 1030.09740465 170.88098676 1022.88534325 C165.01649352 1017.02310975 159.15297872 1011.15989928 153.29015923 1005.2959919 C152.45525834 1004.46093778 151.62035746 1003.62588367 150.76015655 1002.76552488 C149.06399691 1001.06904551 147.3678395 999.37256389 145.67168432 997.67608006 C129.77228209 981.7738273 113.86981801 965.87463929 97.96630334 949.97649945 C84.32483864 936.3395024 70.68599792 922.69988562 57.04907227 909.05834961 C41.20723514 893.21115919 25.36377472 877.36559459 9.51772588 861.52261549 C7.82753922 859.83274737 6.13735464 858.14287716 4.44717216 856.45300484 C3.61560148 855.62158842 2.78403079 854.79017201 1.92726098 853.93356116 C-3.92847889 848.07868417 -9.78305868 842.22264868 -15.63718987 836.36616325 C-22.77287769 829.22766886 -29.91034853 822.09096298 -37.0501005 814.95653336 C-40.69180001 811.31745926 -44.33270039 807.67759518 -47.97143173 804.03555298 C-51.30449682 800.69950108 -54.63987468 797.36577959 -57.97708637 794.03387589 C-59.18178415 792.83029212 -60.38564648 791.62587141 -61.58857106 790.42051541 C-67.02728344 784.9716569 -72.46954314 779.59604641 -78.32423776 774.5887956 C-81.96813706 771.38553694 -85.35757993 767.91913093 -88.78187561 764.48475647 C-89.60864963 763.65954245 -90.43542364 762.83432842 -91.28725141 761.98410791 C-93.5605881 759.71404902 -95.83169652 757.44178898 -98.10183775 755.16853535 C-100.55881324 752.7092848 -103.01868002 750.25292904 -105.47816467 747.79618835 C-110.28754687 742.99124037 -115.09423678 738.18360793 -119.89994986 733.37499053 C-123.80756658 729.46511054 -127.7161642 725.55621364 -131.62545586 721.64800835 C-132.18297385 721.09064359 -132.74049184 720.53327883 -133.31490431 719.95902423 C-134.4476837 718.82656459 -135.58046531 717.69410719 -136.71324914 716.561652 C-147.32198852 705.95576053 -157.92766711 695.34681259 -168.53229272 684.73680805 C-177.62111213 675.64352123 -186.71255012 666.55285937 -195.8059082 657.46411133 C-206.37932983 646.89604763 -216.95111908 636.32635534 -227.52032846 625.75407881 C-228.64849831 624.62559042 -229.77667025 623.49710412 -230.90484428 622.36861992 C-231.45984967 621.81346026 -232.01485506 621.25830059 -232.58667879 620.68631791 C-236.48789022 616.78424498 -240.39025685 612.88332966 -244.29307747 608.98286629 C-249.05271781 604.22603767 -253.81055772 599.46741686 -258.56613595 594.70652706 C-260.99005438 592.27999013 -263.41474766 589.85424176 -265.84163666 587.43067551 C-268.47727891 584.79777363 -271.10980913 582.16179809 -273.74159241 579.52503967 C-274.50171712 578.76714569 -275.26184182 578.0092517 -276.04500061 577.22839123 C-280.06354037 573.19514672 -283.9161251 569.07724486 -287.61605018 564.74897045 C-290.45478853 561.50587367 -293.52446503 558.49308341 -296.58300781 555.45898438 C-297.2847966 554.75865585 -297.98658539 554.05832733 -298.7096405 553.33677673 C-300.21987307 551.83032271 -301.73125878 550.32502399 -303.24369812 548.82078552 C-305.64294802 546.43440672 -308.03896607 544.04482409 -310.4342041 541.65441895 C-315.51940719 536.58059247 -320.60852913 531.5107081 -325.69824219 526.44140625 C-331.60046723 520.56285081 -337.50103671 514.68265334 -343.39738464 508.79820251 C-345.74777173 506.45425554 -348.10117089 504.11336247 -350.45471191 501.77258301 C-351.90778276 500.3231477 -353.3607117 498.87357011 -354.81347656 497.42382812 C-355.45991623 496.78255478 -356.1063559 496.14128143 -356.77238464 495.48057556 C-416.08057864 436.17919385 -447.55502199 352.5101489 -448.19873047 269.37011719 C-448.19201363 222.20446279 -437.70515545 175.42294068 -417.19824219 132.94140625 C-416.79653809 132.10528809 -416.39483398 131.26916992 -415.98095703 130.40771484 C-404.33073675 106.46029475 -389.13482776 84.26347739 -370.90136719 64.85546875 C-368.82743841 62.61970159 -366.82855172 60.35873075 -364.84277344 58.046875 C-361.31670838 54.00179305 -357.56121277 50.2840236 -353.63574219 46.62890625 C-352.93956787 45.98010498 -352.24339355 45.33130371 -351.52612305 44.6628418 C-345.03941815 38.68628576 -338.29587 33.17292041 -331.19824219 27.94140625 C-330.54774902 27.46106934 -329.89725586 26.98073242 -329.22705078 26.48583984 C-296.79031971 2.70921337 -261.08146105 -14.60619084 -222.19824219 -25.05859375 C-221.33166992 -25.29271973 -220.46509766 -25.5268457 -219.57226562 -25.76806641 C-146.90460257 -44.9105244 -66.25313497 -34.91098525 0 0 Z M-271.19824219 139.94140625 C-276.19824219 144.94140625 -276.19824219 144.94140625 -277.67480469 146.27734375 C-302.90823978 169.83652248 -317.30004515 206.71359425 -323.19824219 239.94140625 C-323.37774414 240.87210938 -323.55724609 241.8028125 -323.7421875 242.76171875 C-325.2904919 251.50702604 -325.50575879 260.05509112 -325.45898438 268.90625 C-325.44828746 271.30624833 -325.45892951 273.70549331 -325.47167969 276.10546875 C-325.48091797 285.89333347 -324.80099131 295.26689342 -323.19824219 304.94140625 C-323.05757324 305.80733398 -322.9169043 306.67326172 -322.77197266 307.56542969 C-318.23684165 333.70781674 -307.55917419 359.3090146 -292.19824219 380.94140625 C-291.48152344 381.96105469 -290.76480469 382.98070312 -290.02636719 384.03125 C-282.44328741 394.47815246 -273.63053153 403.59303891 -264.45996094 412.6484375 C-262.46945569 414.66644541 -260.60051104 416.7244976 -258.76074219 418.87890625 C-253.14452757 425.42232612 -247.00957823 431.54696117 -240.4717991 437.16759863 C-236.45123821 440.67606013 -232.64594935 444.35272909 -228.87992531 448.13092196 C-228.1847245 448.82434776 -227.4895237 449.51777355 -226.7732562 450.23221225 C-224.44949042 452.5512554 -222.12927732 454.87381993 -219.80903721 457.19639015 C-218.11768483 458.88578849 -216.42611495 460.5749691 -214.73434755 462.26395184 C-211.04771613 465.94552469 -207.36263675 469.62864373 -203.67891873 473.31313141 C-198.1641904 478.82899761 -192.64660119 484.34199553 -187.12846604 489.85445325 C-177.723217 499.25020116 -168.32036127 508.64834089 -158.91881561 518.04779434 C-149.39148388 527.57299657 -139.86308687 537.09713123 -130.333395 546.61997223 C-129.73144824 547.22148838 -129.12950148 547.82300453 -128.5093139 548.44274844 C-126.05766182 550.89264215 -123.6060041 553.34253022 -121.15433871 555.79241061 C-91.44454482 585.48061563 -61.74010138 615.17417155 -32.03660049 644.86867259 C-22.40527205 654.4970666 -12.77372591 664.12524279 -3.14203334 673.75327253 C-2.12264883 674.7722696 -2.12264883 674.7722696 -1.0826707 675.81185248 C1.66677471 678.56025164 4.4162212 681.30864971 7.16566907 684.05704642 C54.19171426 731.06512883 101.21646784 778.07450302 148.23724081 825.08785913 C151.92986468 828.77989902 155.62249519 832.47193227 159.31512526 836.16396596 C160.04762219 836.89634477 160.78011911 837.62872357 161.53481291 838.38329568 C168.95598237 845.80326775 176.37715751 853.22323413 183.79834146 860.6431917 C185.28630491 862.13090991 186.77426767 863.61862881 188.26222974 865.1063484 C236.05979677 912.89612413 283.86465608 960.67859532 331.67457328 1008.45601551 C366.03097234 1042.78906996 400.38647391 1077.12301946 434.73475742 1111.46419334 C435.4410811 1112.17037 436.14740478 1112.87654666 436.8751322 1113.60412261 C452.38033988 1129.10614553 467.88498063 1144.60873534 483.38909193 1160.11185479 C489.62719102 1166.34953914 495.86536019 1172.58715341 502.10354805 1178.82474899 C503.12763378 1179.84874372 503.12763378 1179.84874372 504.17240811 1180.89342521 C526.16559361 1202.88459461 548.16488336 1224.86964528 570.16731127 1246.85156721 C592.32681601 1268.99049273 614.47997109 1291.13575117 636.62441156 1313.28974527 C639.68471677 1316.35136892 642.74509218 1319.41292238 645.80550957 1322.4744339 C646.40542817 1323.07457235 647.00534677 1323.67471079 647.62344472 1324.29303526 C657.1208138 1333.79351802 666.62488537 1343.28726625 676.13177363 1352.77822241 C685.4810024 1362.11206197 694.82306949 1371.45301891 704.15758063 1380.80157764 C709.62921732 1386.28102057 715.10623853 1391.75494357 720.59144416 1397.22080401 C724.66553947 1401.28175493 728.7291085 1405.35310595 732.78870185 1409.42854906 C734.42059925 1411.06359304 736.05584685 1412.69530196 737.69485869 1414.32321415 C751.94265067 1428.4807929 766.50137386 1443.55199794 767.11425781 1464.81640625 C766.93789955 1475.05694298 764.74280623 1485.04489705 762.81738281 1495.0703125 C760.11275598 1509.29213107 758.19739654 1523.53123632 756.80175781 1537.94140625 C756.70531982 1538.92036865 756.60888184 1539.89933105 756.50952148 1540.90795898 C750.52687316 1608.74913732 763.19552996 1679.74836378 791.67138672 1741.48681641 C792.72746109 1743.78007165 793.75795685 1746.08303307 794.78222656 1748.390625 C805.92458981 1773.17628863 820.97520443 1796.64369973 837.80175781 1817.94140625 C838.42695313 1818.74578125 839.05214844 1819.55015625 839.69628906 1820.37890625 C852.93163797 1837.1993904 867.29857016 1854.39466825 883.61425781 1868.31640625 C886.60406255 1870.88889598 889.52385675 1873.5213074 892.42675781 1876.19140625 C898.62764784 1881.77694078 905.16695884 1886.88632132 911.80175781 1891.94140625 C912.38554199 1892.38742187 912.96932617 1892.8334375 913.57080078 1893.29296875 C968.59333304 1935.09848062 1034.26210086 1963.486151 1102.80175781 1972.94140625 C1103.80964355 1973.0909375 1104.8175293 1973.24046875 1105.85595703 1973.39453125 C1139.72228244 1978.29825258 1176.00553222 1978.20330553 1209.80175781 1972.94140625 C1211.02685059 1972.75916504 1212.25194336 1972.57692383 1213.51416016 1972.38916016 C1236.1605512 1968.9892191 1258.12287188 1964.34078648 1279.80175781 1956.94140625 C1280.75566406 1956.6165625 1281.70957031 1956.29171875 1282.69238281 1955.95703125 C1334.40229961 1938.1900342 1381.47422555 1911.81277555 1422.80175781 1875.94140625 C1423.86910156 1875.02488281 1423.86910156 1875.02488281 1424.95800781 1874.08984375 C1438.32333494 1862.53212234 1451.37828847 1850.44627043 1462.80175781 1836.94140625 C1463.65769531 1835.97460938 1464.51363281 1835.0078125 1465.39550781 1834.01171875 C1517.20350316 1775.254721 1547.37248193 1699.17612621 1556.80175781 1621.94140625 C1556.88929321 1621.25632996 1556.97682861 1620.57125366 1557.0670166 1619.86541748 C1558.81078283 1605.95385982 1559.11240046 1592.15309106 1559.0625 1578.14257812 C1559.05179249 1574.57795121 1559.06245406 1571.01383039 1559.07519531 1567.44921875 C1559.08831156 1547.99807469 1557.75671802 1528.94464605 1554.55175781 1509.75390625 C1554.33777344 1508.45437012 1554.12378906 1507.15483398 1553.90332031 1505.81591797 C1550.86388854 1487.68185439 1547.10497105 1469.57847119 1541.47900391 1452.05517578 C1541.00535747 1450.57686618 1540.54022524 1449.09581381 1540.08154297 1447.61279297 C1525.20604446 1399.54687582 1500.05899427 1355.42372343 1467.80175781 1316.94140625 C1467.09913818 1316.10125977 1467.09913818 1316.10125977 1466.38232422 1315.24414062 C1460.72569901 1308.49821417 1455.00583319 1301.96422678 1448.68457031 1295.82421875 C1447.07619644 1294.21584488 1445.64742159 1292.59759354 1444.23925781 1290.81640625 C1441.65236811 1287.76520301 1438.86762576 1285.30460765 1435.82910156 1282.71875 C1433.95140649 1281.07260114 1432.22048083 1279.36405509 1430.48925781 1277.56640625 C1426.81599617 1273.83497078 1422.80993408 1270.58965968 1418.73144531 1267.3125 C1415.85708611 1264.98618529 1413.05027185 1262.59361631 1410.23925781 1260.19140625 C1391.61581678 1244.67187206 1370.95884997 1231.69354773 1349.80175781 1219.94140625 C1348.93873047 1219.46058594 1348.07570313 1218.97976563 1347.18652344 1218.484375 C1309.08935022 1197.45184965 1267.38175856 1183.18848312 1224.44042969 1176.37060547 C1222.01802126 1175.97658308 1219.60570631 1175.54736573 1217.19238281 1175.1015625 C1196.11726894 1171.30549586 1174.66510796 1170.76117618 1153.30175781 1170.75390625 C1152.14114838 1170.75241074 1152.14114838 1170.75241074 1150.95709229 1170.75088501 C1138.25119073 1170.75274631 1125.61584773 1171.14091693 1113.05175781 1173.19140625 C1111.34343407 1173.45318757 1109.63509987 1173.71490072 1107.92675781 1173.9765625 C1103.91951603 1174.60167593 1099.91652445 1175.25014749 1095.91421509 1175.90603638 C1040.84451189 1184.87283294 1040.84451189 1184.87283294 1017.1400304 1169.17920059 C1007.97850679 1162.49909432 1000.15769175 1154.71332715 992.17978191 1146.69136715 C990.62172713 1145.13583817 989.06301487 1143.5809675 987.50370952 1142.02669212 C983.22509987 1137.75808825 978.95586296 1133.48021733 974.68811215 1129.20076053 C970.52154375 1125.02574207 966.34787012 1120.85784142 962.17441609 1116.68970865 C953.53892363 1108.06472439 944.91052517 1099.43267532 936.28600121 1090.79672432 C927.54965204 1082.04885577 918.81002838 1073.30427806 910.06641006 1064.56367493 C909.51355278 1064.0110042 908.96069549 1063.45833347 908.39108496 1062.88891515 C905.57187952 1060.07069013 902.75262189 1057.25251731 899.93334668 1054.43436208 C879.54077394 1034.0496627 859.15552885 1013.65764856 838.77425194 993.26165581 C818.58831587 973.0611747 798.39949139 952.86358789 778.20672035 932.66993904 C776.93846195 931.40161901 775.67020358 930.13329893 774.40194526 928.86497881 C769.30534503 923.76814286 764.20871984 918.67133186 759.11206505 913.57455047 C744.86517645 899.32730012 730.61878103 885.07955668 716.37273884 870.83146 C715.39966478 869.85824646 715.39966478 869.85824646 714.40693267 868.86537204 C682.85693892 837.31076098 651.3127189 805.75037974 619.76879883 774.18969727 C575.91163594 730.3092293 532.04990481 686.43333459 488.18286133 642.56274414 C486.81766024 641.19743066 485.45245927 639.83211706 484.08725843 638.46680332 C479.31824283 633.69739426 474.54922409 628.92798833 469.780205 624.15858275 C465.70725474 620.0853024 461.63430537 616.01202115 457.56135701 611.9387389 C455.53052701 609.90774345 453.49969535 607.87674965 451.46886363 605.8457559 C408.98907051 563.36253335 366.51314149 520.87544759 324.03796264 478.38761171 C310.78098541 465.12669216 297.52378666 451.86599419 284.2660234 438.60586047 C257.71042576 412.04546388 231.15596264 385.48393578 204.60610845 358.91779786 C202.36411161 356.67443819 200.12210833 354.43108495 197.88010025 352.18773651 C197.32987008 351.63717548 196.77963991 351.08661445 196.2127361 350.51936976 C187.49491648 341.79639123 178.77544124 333.07506964 170.05528657 324.35442548 C161.48414009 315.78272246 152.9147897 307.20922731 144.34735829 298.63381104 C139.76309576 294.04541838 135.1780462 289.45781972 130.59082093 284.87238889 C126.41983058 280.70299241 122.25113486 276.53131604 118.08427715 272.35778954 C116.58391423 270.85583031 115.08271203 269.35470888 113.58057965 267.85451932 C111.54242503 265.81875615 109.50737214 263.77994051 107.47304982 261.74034876 C106.60460537 260.87513602 106.60460537 260.87513602 105.7186166 259.99244424 C102.10882203 256.36509753 98.70027128 252.60510878 95.36244725 248.72589472 C93.19735501 246.25033357 90.89279623 243.93762972 88.55175781 241.62890625 C87.85904785 240.94187622 87.85904785 240.94187622 87.15234375 240.2409668 C85.70463059 238.8052445 84.25366924 237.37288193 82.80175781 235.94140625 C77.20430599 230.42273894 71.680475 224.90713574 66.56738281 218.9296875 C63.00394982 214.91688353 59.12506166 211.20431035 55.30175781 207.44140625 C50.17198377 202.39267129 45.18100977 197.32269931 40.49072266 191.86181641 C37.58888115 188.56232445 34.48143365 185.4735899 31.36425781 182.37890625 C30.70611084 181.72269287 30.04796387 181.06647949 29.36987305 180.39038086 C25.54899255 176.60351834 21.66713411 172.94866787 17.55566406 169.4765625 C15.543423 167.71529137 13.67803796 165.84660786 11.80175781 163.94140625 C7.96610906 160.0612432 3.95266265 156.47918932 -0.19824219 152.94140625 C-1.1328125 152.12929687 -2.06738281 151.3171875 -3.03027344 150.48046875 C-36.67638248 121.40921272 -78.18731009 94.48360387 -123.19824219 88.94140625 C-124.73931641 88.74998047 -124.73931641 88.74998047 -126.31152344 88.5546875 C-129.61207429 88.23176194 -132.88370284 88.05864076 -136.19824219 87.94140625 C-136.9467041 87.9141748 -137.69516602 87.88694336 -138.46630859 87.85888672 C-186.81732156 86.33925615 -237.48272928 104.62039273 -271.19824219 139.94140625 Z " fill="#231815" transform="translate(1465.1982421875,1076.05859375)"/>
<path d="M0 0 C11.24667087 9.45735948 21.42251643 20.28323306 31.79434681 30.67129898 C33.68696245 32.56317401 35.57977599 34.45484917 37.47282985 36.34628552 C41.58543901 40.45617502 45.69620466 44.56790108 49.80574361 48.68086043 C55.95770515 54.83792211 62.11258074 60.99206482 68.2680096 67.14565985 C78.76067713 77.63536824 89.25098471 88.12743378 99.73999977 98.6207943 C110.36495485 109.25013172 120.9910055 119.87837212 131.61838913 130.50528145 C132.29030699 131.17717062 132.96222486 131.84905979 133.65450387 132.54130924 C137.0807856 135.9674346 140.50708513 139.39354217 143.93339093 142.81964346 C168.71603432 167.60088034 193.4962606 192.38453306 218.2752018 217.16947174 C242.81091239 241.71110674 267.34765938 266.2517048 291.88579369 290.79091644 C292.64812672 291.55328389 293.41045975 292.31565133 294.19589379 293.10112082 C301.1587317 300.06427194 308.12158237 307.0274103 315.08444834 313.99053335 C332.39260146 331.29932583 349.7005946 348.60827827 367.00847912 365.91733932 C367.79660283 366.70551635 368.58472654 367.49369338 369.39673279 368.30575456 C407.72532201 406.63696469 446.05206784 444.97001783 484.37866211 483.30322266 C497.6772294 496.60408163 510.97580485 509.90493245 524.27441406 523.20574951 C525.51160203 524.4431429 525.51160203 524.4431429 526.77378369 525.70553413 C565.12334512 564.0614408 603.47421679 602.41603728 641.82542606 640.77029631 C644.31551599 643.26058429 646.80560535 645.75087285 649.29569459 648.24116151 C665.79778276 664.74456948 682.29989351 681.24795487 698.80201937 697.75132515 C731.63656104 730.58834327 764.47097009 763.425494 797.30528802 796.26273585 C798.86890923 797.8264963 800.43253054 799.39025667 801.99615194 800.95401694 C872.37799937 871.34211665 942.75830395 941.73175894 1013.13793945 1012.12207031 C1013.79688369 1012.78111449 1014.45582793 1013.44015866 1015.13474017 1014.11917387 C1048.08992099 1047.07935505 1081.04501497 1080.03962305 1114 1113 C1116.98427738 1111.82514069 1119.7897915 1110.64448809 1122.546875 1109.00390625 C1147.55834691 1094.43957561 1174.65513278 1083.88235291 1203 1078 C1204.15371094 1077.73703125 1205.30742187 1077.4740625 1206.49609375 1077.203125 C1210.31608518 1076.36843345 1214.14545474 1075.65125576 1218 1075 C1218.80147461 1074.86174805 1219.60294922 1074.72349609 1220.42871094 1074.58105469 C1234.90776295 1072.19569952 1249.23467382 1071.70659449 1263.875 1071.6875 C1264.73156189 1071.68400543 1265.58812378 1071.68051086 1266.47064209 1071.6769104 C1282.8964882 1071.63973361 1299.06463014 1072.76697084 1315.125 1076.375 C1316.1444873 1076.59849121 1317.16397461 1076.82198242 1318.21435547 1077.05224609 C1320.23628243 1077.49742056 1322.2573288 1077.94661915 1324.27734375 1078.40039062 C1326.59689853 1078.91122514 1328.91739557 1079.38198609 1331.25 1079.828125 C1386.88421974 1091.26903309 1442.67713364 1127.01009422 1477.83984375 1171.2890625 C1479.21727439 1173.01770059 1480.62368778 1174.72390227 1482.06640625 1176.3984375 C1493.84416085 1190.14999628 1503.71704292 1205.92048324 1512 1222 C1512.64316162 1223.24740967 1512.64316162 1223.24740967 1513.29931641 1224.52001953 C1520.80157863 1239.25042797 1526.81780045 1254.30929123 1532 1270 C1532.23299805 1270.70447266 1532.46599609 1271.40894531 1532.70605469 1272.13476562 C1535.84503602 1281.83334741 1537.69966468 1291.83753624 1539.5859375 1301.83837891 C1539.9129974 1303.5458013 1540.26458787 1305.24852403 1540.625 1306.94921875 C1546.49711024 1335.4381286 1545.44788431 1366.418555 1541 1395 C1540.8443457 1396.03721191 1540.68869141 1397.07442383 1540.52832031 1398.14306641 C1532.62068654 1449.17966081 1509.10059896 1499.73028478 1474.06640625 1537.75 C1472.24386514 1539.7344682 1470.49216442 1541.75785892 1468.75 1543.8125 C1460.31847427 1553.45410581 1451.07960959 1562.10799799 1441 1570 C1439.96720573 1570.84446903 1438.93601801 1571.6909058 1437.90625 1572.5390625 C1404.72351986 1599.61944858 1362.32748292 1620.39887517 1320 1628 C1319.04641602 1628.17225098 1318.09283203 1628.34450195 1317.11035156 1628.52197266 C1313.86809608 1629.09569482 1310.62297698 1629.6471363 1307.375 1630.1875 C1306.3737207 1630.35491699 1305.37244141 1630.52233398 1304.34082031 1630.69482422 C1290.97956036 1632.79866902 1277.56959299 1633.20896159 1264.0625 1633.1875 C1263.35066559 1633.18689575 1262.63883118 1633.1862915 1261.90542603 1633.18566895 C1241.88297377 1633.13993839 1222.527813 1631.54847156 1203 1627 C1202.06188477 1626.78859375 1201.12376953 1626.5771875 1200.15722656 1626.359375 C1153.66947956 1615.81418214 1110.46114884 1593.76627872 1075.45703125 1561.2734375 C1073.27900347 1559.25815584 1071.06390714 1557.30727564 1068.8125 1555.375 C1048.01440883 1537.25094912 1031.58986267 1513.84475231 1018 1490 C1017.63696777 1489.37109863 1017.27393555 1488.74219727 1016.89990234 1488.09423828 C1009.57100001 1475.2888646 1004.23968607 1461.76674323 999 1448 C998.69433105 1447.21625 998.38866211 1446.4325 998.07373047 1445.625 C993.06938772 1432.77609167 989.88988177 1419.46648669 987 1406 C986.82017578 1405.16307617 986.64035156 1404.32615234 986.45507812 1403.46386719 C983.13095071 1386.68155076 982.5945451 1369.74512194 982.625 1352.6875 C982.62487915 1351.64117401 982.6247583 1350.59484802 982.62463379 1349.51681519 C982.65327873 1332.02891517 983.70659243 1315.20214742 987 1298 C987.15484863 1297.16710449 987.30969727 1296.33420898 987.46923828 1295.47607422 C988.41167795 1290.57601413 989.60691488 1285.79018006 991 1281 C991.23025879 1280.19820312 991.46051758 1279.39640625 991.69775391 1278.5703125 C999.11332644 1253.16184277 1008.72551105 1226.82586928 1024 1205 C1022.6526515 1201.9992332 1021.15887817 1199.9093957 1018.83654134 1197.58908969 C1017.85146919 1196.59759247 1017.85146919 1196.59759247 1016.84649658 1195.586065 C1016.12122939 1194.86628811 1015.39596221 1194.14651122 1014.64871722 1193.4049229 C1013.87691077 1192.6310572 1013.10510431 1191.85719149 1012.30990978 1191.05987531 C1009.69594765 1188.44142008 1007.07485173 1185.83022186 1004.45379353 1183.21887112 C1002.5618322 1181.32664438 1000.67027276 1179.43402359 998.77919677 1177.54091284 C994.64011196 1173.39898849 990.49729959 1169.26082157 986.35208426 1165.12503301 C980.14646783 1158.93348368 973.94664432 1152.73615769 967.74797468 1146.53765455 C957.18478645 1135.97507713 946.61688785 1125.4172239 936.04646492 1114.86188698 C925.32948857 1104.1601572 914.61470971 1093.45623435 903.90263748 1082.74959564 C903.22685907 1082.07416177 902.55108066 1081.39872789 901.85482411 1080.70282632 C898.40920675 1077.25894117 894.96362948 1073.81501591 891.51806975 1070.3710731 C884.45276713 1063.30911622 877.38715608 1056.24746795 870.32143438 1049.18593037 C869.60972591 1048.47464328 868.89801744 1047.76335618 868.16474205 1047.03051493 C851.75269091 1030.62834625 835.3374151 1014.22940581 818.92205682 997.83054705 C793.41581086 972.34990553 767.91238565 946.86644572 742.41296959 921.37896919 C741.26135237 920.22789167 741.26135237 920.22789167 740.08647016 919.05356006 C730.72396682 909.69542002 721.36159681 900.3371466 711.99926584 890.9788341 C697.71777297 876.70348891 683.43599435 862.42842957 669.15419511 848.15339088 C667.55079382 846.55074854 665.9473932 844.94810553 664.34399325 843.34546185 C626.54014079 805.55945137 588.7337445 767.77598655 550.92633863 729.99353151 C548.4171023 727.48595037 545.90786863 724.97836658 543.39863533 722.47078241 C504.75214583 683.84972213 466.10435383 645.22996579 427.4543457 606.61242676 C425.77522973 604.93471938 424.09611383 603.25701193 422.41699799 601.57930442 C414.87201141 594.04064885 407.32701607 586.50200205 399.78201965 578.96335634 C396.43539991 575.61955324 393.08878099 572.2757493 389.74216197 568.93194547 C387.23477561 566.4266696 384.72738735 563.92139563 382.21999901 561.41612174 C344.4549462 523.68288195 306.69139693 485.94813991 268.93399334 448.20724583 C268.1405319 447.41413277 267.34707047 446.62101971 266.52956475 445.80387293 C249.89422787 429.17581309 233.25928903 412.54735514 216.62488558 395.91836152 C208.83538332 388.13139818 201.04577802 380.34453793 193.25610924 372.55774117 C192.48915898 371.7910707 191.72220872 371.02440023 190.93201755 370.23449732 C166.21402179 345.5256282 141.48921238 320.82359035 116.76067254 296.12527404 C91.85659116 271.25160308 66.9585011 246.37195298 42.06891679 221.48377518 C38.63079808 218.04585643 35.19260561 214.60801146 31.75436783 211.17021179 C31.08036986 210.49629495 30.40637189 209.82237812 29.71194974 209.12803955 C19.03233889 198.45009067 8.34599016 187.77891128 -2.34318319 177.11053585 C-12.8496212 166.6242686 -23.34894468 156.13092291 -33.84070704 145.62997188 C-39.99448934 139.47123416 -46.15371299 133.3180613 -52.32109006 127.1729368 C-56.41605909 123.09165498 -60.50373252 119.00316222 -64.58554382 114.90872117 C-66.89995063 112.58756198 -69.21841442 110.27074404 -71.5437303 107.96050669 C-87.19444258 92.40521205 -100.03899442 77.56480722 -100.38037109 54.37182617 C-100.34831037 35.73725915 -100.34831037 35.73725915 -96 27 C-95.57589844 26.07574219 -95.15179687 25.15148438 -94.71484375 24.19921875 C-91.20009008 17.12075942 -86.55045381 11.57921263 -81 6 C-80.40832031 5.37351562 -79.81664062 4.74703125 -79.20703125 4.1015625 C-75.00446067 0.00104109 -70.25035225 -2.66249061 -65.0625 -5.3125 C-64.07817993 -5.81934326 -64.07817993 -5.81934326 -63.07397461 -6.33642578 C-43.36766836 -15.95222685 -17.66809563 -12.21479915 0 0 Z " fill="#F46274" transform="translate(1360,1297)"/>
</svg>
